<?xml version="1.0" encoding="utf-8"?>
<?xml-stylesheet type="text/xsl" href="rss1.xsl"?>
<rss version="2.0" xmlns:atom="http://www.w3.org/2005/Atom" xmlns:content="http://purl.org/rss/1.0/modules/content/" xmlns:dc="http://purl.org/dc/elements/1.1/" xmlns:media="http://search.yahoo.com/mrss/">
<channel>
 <title>Getty</title>
 <link>http://www.gettyimg.com/</link>
 <atom:link href="http://www.gettyimg.com/" rel="self" type="application/rss+xml" />

 
                <item>
                <title><![CDATA[【Cinema Center】SERIES - O11CE - Season 3 - 1080p Disney+ WEB-DL AAC2.0 H.264-LAZY]]></title>
                <link><![CDATA[https://sharemania.us/threads/o11ce-season-3-1080p-disney-web-dl-aac2-0-h-264-lazy.241246/]]></link>
                <description><![CDATA[<article>
<blockquote class="messageText SelectQuoteContainer ugc baseHtml">
O11CE:<img src="http:////cdn2.broadcasthe.net/tvdb/banners/graphical/323858-g2.jpg" class="bbCodeImage LbImage" alt="[​IMG]" data-url="http:////cdn2.broadcasthe.net/tvdb/banners/graphical/323858-g2.jpg" style=""><br>
<br>
<div class="bbCodeBlock bbCodeQuote">
<aside>
<blockquote class="quoteContainer"><div class="quote"><i><b>Synopsis:</b></i><br>
Gabo is a young soccer lover who leaves the small town of Álamo Seco, where he was born and raised, to study at the Academic Sports Institute, with a bag to be a Golden Hawk, that is, a member of the famous amateur team of the school. Gabo has never been so close to realizing his dream, but between secrets unearthed from family and disagreements between colleagues, the young man realizes that he must overcome many challenges to become a great football player.</div><div class="quoteExpand">Click to expand...</div></blockquote>
</aside>
</div>
<div class="ToggleTriggerAnchor bbCodeSpoilerContainer">
<button type="button" class="button bbCodeSpoilerButton ToggleTrigger Tooltip JsOnly" data-target="> .SpoilerTarget"><span>Spoiler: <span class="SpoilerTitle">MediaInfo</span></span></button>
<div class="SpoilerTarget bbCodeSpoilerText">General<br>
Unique ID : 129877778157260199850371877256129147478 (0x61B58CDA52DCBAE310CFBAA10C07F256)<br>
Complete name : O11CE.S03E01.EPISODE.161.1080p.DSNP.WEB-DL.AAC2.0.H.264-LAZY.mkv<br>
Format : Matroska<br>
Format version : Version 4<br>
File size : 1.61 GiB<br>
Duration : 26 min 24 s<br>
Overall bit rate mode : Variable<br>
Overall bit rate : 8 739 kb/s<br>
Frame rate : 23.976 FPS<br>
Encoded date : 2024-03-29 13:13:11 UTC<br>
Writing application : mkvmerge v83.0 ('Circle Of Friends') 64-bit<br>
Writing library : libebml v1.4.5 + libmatroska v1.7.1<br>
<br>
Video<br>
ID : 1<br>
Format : AVC<br>
Format/Info : Advanced Video Codec<br>
Format profile : High@L4<br>
Format settings : CABAC / 4 Ref Frames<br>
Format settings, CABAC : Yes<br>
Format settings, Reference frames : 4 frames<br>
Codec ID : V_MPEG4/ISO/AVC<br>
Duration : 26 min 24 s<br>
Bit rate mode : Variable<br>
Bit rate : 8 484 kb/s<br>
Maximum bit rate : 12.7 Mb/s<br>
Width : 1 920 pixels<br>
Height : 1 080 pixels<br>
Display aspect ratio : 16:9<br>
Frame rate mode : Constant<br>
Frame rate : 23.976 (24000/1001) FPS<br>
Color space : YUV<br>
Chroma subsampling : 4:2:0<br>
Bit depth : 8 bits<br>
Scan type : Progressive<br>
Bits/(Pixel*Frame) : 0.171<br>
Time code of first frame : 00:00:00;00<br>
Stream size : 1.56 GiB (97%)<br>
Default : Yes<br>
Forced : No<br>
Color range : Limited<br>
Color primaries : BT.709<br>
Transfer characteristics : BT.709<br>
Matrix coefficients : BT.709<br>
<br>
Audio #1<br>
ID : 2<br>
Format : AAC LC<br>
Format/Info : Advanced Audio Codec Low Complexity<br>
Codec ID : A_AAC-2<br>
Duration : 26 min 24 s<br>
Bit rate : 125 kb/s<br>
Channel(s) : 2 channels<br>
Channel layout : L R<br>
Sampling rate : 48.0 kHz<br>
Frame rate : 46.875 FPS (1024 SPF)<br>
Compression mode : Lossy<br>
Stream size : 23.7 MiB (1%)<br>
Language : English<br>
Default : Yes<br>
Forced : No<br>
<br>
Audio #2<br>
ID : 3<br>
Format : AAC LC<br>
Format/Info : Advanced Audio Codec Low Complexity<br>
Codec ID : A_AAC-2<br>
Duration : 26 min 24 s<br>
Bit rate : 125 kb/s<br>
Channel(s) : 2 channels<br>
Channel layout : L R<br>
Sampling rate : 48.0 kHz<br>
Frame rate : 46.875 FPS (1024 SPF)<br>
Compression mode : Lossy<br>
Stream size : 23.7 MiB (1%)<br>
Title : Latin American<br>
Language : Spanish<br>
Default : No<br>
Forced : No<br>
<br>
Text #1<br>
ID : 4<br>
Format : UTF-8<br>
Codec ID : S_TEXT/UTF8<br>
Codec ID/Info : UTF-8 Plain Text<br>
Duration : 26 min 19 s<br>
Bit rate : 102 b/s<br>
Frame rate : 0.339 FPS<br>
Count of elements : 535<br>
Stream size : 19.7 KiB (0%)<br>
Title : SDH<br>
Language : English<br>
Default : No<br>
Forced : No<br>
<br>
Text #2<br>
ID : 5<br>
Format : UTF-8<br>
Codec ID : S_TEXT/UTF8<br>
Codec ID/Info : UTF-8 Plain Text<br>
Duration : 26 min 21 s<br>
Bit rate : 90 b/s<br>
Frame rate : 0.333 FPS<br>
Count of elements : 526<br>
Stream size : 17.4 KiB (0%)<br>
Language : German<br>
Default : No<br>
Forced : No<br>
<br>
Text #3<br>
ID : 6<br>
Format : UTF-8<br>
Codec ID : S_TEXT/UTF8<br>
Codec ID/Info : UTF-8 Plain Text<br>
Duration : 26 min 20 s<br>
Bit rate : 75 b/s<br>
Frame rate : 0.316 FPS<br>
Count of elements : 499<br>
Stream size : 14.6 KiB (0%)<br>
Language : Finnish<br>
Default : No<br>
Forced : No<br>
<br>
Text #4<br>
ID : 7<br>
Format : UTF-8<br>
Codec ID : S_TEXT/UTF8<br>
Codec ID/Info : UTF-8 Plain Text<br>
Duration : 26 min 22 s<br>
Bit rate : 77 b/s<br>
Frame rate : 0.298 FPS<br>
Count of elements : 471<br>
Stream size : 15.0 KiB (0%)<br>
Title : SDH<br>
Language : French<br>
Default : No<br>
Forced : No<br>
<br>
Text #5<br>
ID : 8<br>
Format : UTF-8<br>
Codec ID : S_TEXT/UTF8<br>
Codec ID/Info : UTF-8 Plain Text<br>
Duration : 26 min 21 s<br>
Bit rate : 97 b/s<br>
Frame rate : 0.342 FPS<br>
Count of elements : 541<br>
Stream size : 18.9 KiB (0%)<br>
Language : Korean<br>
Default : No<br>
Forced : No<br>
<br>
Text #6<br>
ID : 9<br>
Format : UTF-8<br>
Codec ID : S_TEXT/UTF8<br>
Codec ID/Info : UTF-8 Plain Text<br>
Duration : 26 min 20 s<br>
Bit rate : 82 b/s<br>
Frame rate : 0.342 FPS<br>
Count of elements : 541<br>
Stream size : 15.9 KiB (0%)<br>
Title : Simplified<br>
Language : Chinese<br>
Default : No<br>
Forced : No<br>
<br>
Text #7<br>
ID : 10<br>
Format : UTF-8<br>
Codec ID : S_TEXT/UTF8<br>
Codec ID/Info : UTF-8 Plain Text<br>
Duration : 26 min 20 s<br>
Bit rate : 83 b/s<br>
Frame rate : 0.342 FPS<br>
Count of elements : 541<br>
Stream size : 16.0 KiB (0%)<br>
Title : Traditional<br>
Language : Chinese<br>
Default : No<br>
Forced : No<br>
<br>
Menu<br>
00:05:08.000 : en:Intro<br>
00:05:47.830 : en:Scene 1<br>
00:17:04.274 : en:Scene 2<br>
00:21:18.487 : en:Scene 3<br>
00:25:49.550 : en:Credits</div>
</div><br>
Screenshots:<br>
<img src="https://ptpimg.me/6c4723.jpg" class="bbCodeImage LbImage" alt="[​IMG]" data-url="https://ptpimg.me/6c4723.jpg" style=""> <br>
<br>
<div class="bbCodeBlock bbCodeVfcHH HiddenContent">
<div class="attribution type">Hidden Content:</div>
<blockquote>You must either reply or click 'Like' to see the hidden information contained here.</blockquote>
</div>
<div class="messageTextEndMarker">&nbsp;</div>
</blockquote>
</article>]]></description>
                <author><![CDATA[LazyRips]]></author>
                </item>

                
                <item>
                <title><![CDATA[【Requests】[REQ AUD] - Ring My Bells - Enrique Iglesias + Instrumental (FLAC)]]></title>
                <link><![CDATA[https://sharemania.us/threads/ring-my-bells-enrique-iglesias-instrumental-flac.241235/]]></link>
                <description><![CDATA[<article>
<blockquote class="messageText SelectQuoteContainer ugc baseHtml">
can someone please upload Ring My Bells by Enrique Iglesias in lossless? Also Instrumental in lossless of this song (but i don't know if this available or not).
<div class="messageTextEndMarker">&nbsp;</div>
</blockquote>
</article>]]></description>
                <author><![CDATA[Cali_14_Hot]]></author>
                </item>

                </channel></rss>